<svg width="188" height="188" viewBox="0 0 188 188" fill="none" xmlns="http://www.w3.org/2000/svg">
<path d="M134.484 119.378C134.895 118.008 134.118 116.564 132.748 116.152C131.378 115.74 129.934 116.517 129.522 117.887L122.068 142.695L22.8392 112.879C15.9889 110.82 8.76699 114.705 6.70864 121.555C6.56277 121.953 6.4408 122.359 6.3434 122.771C5.20544 129.502 9.33202 136.005 15.9062 137.843L25.3082 140.668L29.0351 128.264L53.8424 135.718L50.1154 148.122L114.614 167.502C117.354 168.325 120.243 166.771 121.066 164.031L128.52 139.224" fill="#3B97D3"/>
<path d="M137.465 109.455L129.691 135.329L102.325 84.4534L122.674 73.5283C124.469 86.5668 129.56 98.9321 137.465 109.455V109.455Z" fill="#95A5A5"/>
<path d="M21.8374 134.215L17.3969 132.881C13.3909 131.804 10.8306 127.893 11.4463 123.79C11.5432 123.468 11.6103 123.245 11.67 123.046C12.905 118.936 17.2381 116.605 21.3483 117.84L118.096 146.91C115.151 151.313 113.594 156.498 113.624 161.795L21.8374 134.215Z" fill="#F5EFCA"/>
<path d="M129.69 135.329L129.266 136.743C128.446 139.472 124.797 143.515 122.068 142.695L121.87 142.635L93.2193 89.3718L39.9065 118.007L25.9153 113.803L83.7347 82.6812L78.8163 73.5761L73.9301 64.4537L50.4859 20.8688L54.6974 6.85276L92.8745 77.8273L111.134 68.0054L80.5926 11.2257L94.6335 15.4447L120.247 63.0621L122.731 61.7259C122.257 65.6447 122.238 69.6051 122.674 73.5282L102.324 84.4533L129.69 135.329Z" fill="#F3D55B"/>
<path d="M124.34 54.1222C123.591 56.6159 123.05 59.1675 122.724 61.7507L120.239 63.0869L94.6334 15.4446L159.827 35.0336C144.756 30.5052 128.868 39.0514 124.34 54.1222Z" fill="#F29C1F"/>
<path d="M111.117 67.9731L92.8571 77.7951L54.6974 6.85276L55.6366 3.72705L80.5926 11.2257L111.117 67.9731Z" fill="#4FBA6F"/>
<path d="M55.6365 3.72698L22.8391 112.879C15.9888 110.82 8.76691 114.705 6.70856 121.555L39.506 12.4036C41.5643 5.55328 48.7862 1.66862 55.6365 3.72698Z" fill="#2980BA"/>
<path d="M129.265 136.743L121.066 164.031L107.67 160.006C107.117 154.647 108.727 149.288 112.143 145.121L120.577 147.656C123.317 148.479 126.206 146.925 127.029 144.185L129.265 136.743Z" fill="#285680"/>
<path d="M129.266 136.743L128.52 139.224C128.614 138.898 128.642 138.558 128.605 138.222C128.879 137.754 129.1 137.259 129.266 136.743Z" fill="#285680"/>
<path d="M121.87 142.635L39.9065 118.007L93.2193 89.3718L121.87 142.635Z" fill="#95A5A5"/>
<path d="M83.7345 82.681L25.9151 113.803L22.839 112.879L30.3451 87.8977L73.9299 64.4535L78.8161 73.5759L83.7345 82.681Z" fill="#285680"/>
<path d="M64.3857 46.7098L38.5445 60.6098L50.4857 20.8687L64.3857 46.7098Z" fill="#285680"/>
<path d="M73.9299 64.4535L30.3451 87.8978L38.5445 60.6098L64.3857 46.7099L73.9299 64.4535Z" fill="#4482C3"/>
<path d="M159.827 35.0334C144.756 30.5051 128.868 39.0513 124.339 54.122C123.591 56.6158 123.05 59.1674 122.723 61.7505C122.25 65.6693 122.23 69.6297 122.666 73.5529C124.468 86.5834 129.561 98.9397 137.465 109.455C137.465 109.455 170.41 98.8257 178.915 70.5207C181.09 63.2835 180.3 55.4789 176.721 48.8237C173.141 42.1686 167.064 37.2081 159.827 35.0334ZM147.9 74.725C139.68 72.255 135.018 63.5887 137.488 55.3683C139.958 47.1479 148.625 42.4863 156.845 44.9563C165.065 47.4264 169.727 56.0926 167.257 64.313C166.071 68.2606 163.365 71.5753 159.735 73.5279C156.105 75.4805 151.848 75.9111 147.9 74.725Z" fill="#E64C3C"/>
<path d="M147.9 74.725C156.121 77.1951 164.787 72.5335 167.257 64.3131C169.727 56.0927 165.065 47.4264 156.845 44.9564C148.625 42.4864 139.958 47.1479 137.488 55.3683C135.018 63.5887 139.68 72.255 147.9 74.725Z" fill="#F5EFCA"/>
<path d="M147.155 77.2058C137.565 74.3241 132.126 64.2134 135.008 54.623C137.889 45.0325 148 39.594 157.591 42.4757C167.181 45.3574 172.62 55.4681 169.738 65.0585C168.354 69.664 165.197 73.5312 160.962 75.8092C156.727 78.0873 151.761 78.5896 147.155 77.2058ZM156.1 47.4372C149.249 45.3788 142.028 49.2634 139.969 56.1138C137.911 62.9641 141.795 70.186 148.646 72.2443C155.496 74.3027 162.718 70.4181 164.776 63.5677C165.765 60.2781 165.406 56.7305 163.779 53.7055C162.152 50.6804 159.389 48.4256 156.1 47.4372Z" fill="#C03A2B"/>
<path d="M63.0198 141.18L20.8475 128.508C19.4775 128.097 18.7005 126.652 19.1122 125.282C19.5239 123.912 20.9682 123.135 22.3383 123.547L64.5106 136.219C65.8806 136.63 66.6576 138.075 66.2459 139.445C65.8342 140.815 64.3898 141.592 63.0198 141.18Z" fill="#E4C05C"/>
<path d="M54.5878 133.237L47.8792 155.564C47.6112 156.455 46.8857 157.134 45.9786 157.342C45.0715 157.551 44.1224 157.256 43.4923 156.572L37.3844 149.895C36.75 149.221 35.8043 148.937 34.9037 149.149L26.1272 151.354C25.2346 151.554 24.3027 151.268 23.6756 150.602C23.0484 149.936 22.819 148.989 23.072 148.11L29.7806 125.783L54.5878 133.237Z" fill="#E64C3C"/>
<path d="M129.266 136.743L128.52 139.224C128.614 138.898 128.642 138.558 128.605 138.222C128.879 137.754 129.1 137.259 129.266 136.743Z" fill="#3B97D3"/>
</svg>
