<svg width="249" height="254" viewBox="0 0 249 254" fill="none" xmlns="http://www.w3.org/2000/svg">
<g clip-path="url(#clip0)">
<path d="M219.819 163.894C221.04 166.085 222.249 168.307 223.444 170.565C224.34 169.25 225.174 167.919 225.947 166.567C226.463 165.661 225.877 164.517 224.86 164.429C223.127 164.282 221.445 164.099 219.819 163.894Z" fill="#47821C"/>
<path d="M49.2901 102.895C39.0247 99.6305 34.1722 94.9708 21.2325 86.9866C19.0744 85.655 17.8826 83.136 18.2264 80.5684C21.305 57.6063 26.8118 39.1546 31.1545 27.3375C34.6471 17.8346 42.839 10.986 52.5855 9.23992C66.85 6.68497 80.6124 6.46912 93.4342 7.71031C95.6616 7.92594 97.5907 9.35169 98.5397 11.4255C105.343 26.2944 113.071 38.5424 113.829 55.875C113.897 57.4303 115.988 57.7745 116.528 56.3163C119.492 48.3253 124.051 33.7735 126.322 15.1796C126.433 14.2694 127.33 13.6852 128.172 13.9857C138.123 17.5347 152.194 23.7989 158.912 27.1791C159.306 27.3768 159.581 27.7494 159.658 28.1918C163.048 47.4533 166.626 74.8276 164.703 96.9565C164.564 98.5553 166.692 99.1372 167.358 97.6816C172.606 86.2204 181.952 64.6056 186.172 47.4139C186.437 46.3365 187.734 45.9505 188.505 46.725C191.174 49.4094 195.73 54.0788 197.363 55.7429C197.572 55.9552 197.707 56.2261 197.752 56.5251C200.207 72.8878 201.424 95.7662 194.162 114.762C193.673 116.039 195.01 117.219 196.164 116.525C202.309 112.826 214.814 103.98 220.906 90.2541C221.384 89.178 222.854 89.1064 223.403 90.1399C230.475 103.45 234.272 116.968 234.294 133.152C234.295 133.597 234.09 134.016 233.744 134.287C223.569 142.275 211.101 153.713 194.885 155.154C193.382 155.287 193.088 157.414 194.507 157.929C200.827 160.222 211.325 163.266 224.881 164.432C225.898 164.519 226.488 165.663 225.97 166.569C221.627 174.158 215.399 181.197 206.884 187.489C197.819 194.978 179.309 194.993 175.322 176.547C174.427 172.426 175.389 164.284 173.576 160.396C169.574 151.814 165.214 147.48 160.634 141.166C152.446 130.451 138.943 127.432 130.451 134.411C121.988 141.434 121.702 155.848 129.89 166.565C134.801 172.669 137.836 178.019 144.981 184.021C148.213 186.736 156.234 186.465 159.892 188.303C163.083 189.902 165.741 192.207 167.797 194.898C174.155 203.218 170.2 217.795 162.834 223.881C155.208 230.906 147.408 235.567 139.521 238.282C138.425 238.659 137.382 237.59 137.756 236.467C143.594 218.942 142.365 208.124 140.96 202.87C140.602 201.531 138.769 201.476 138.304 202.785C132.287 219.732 124.607 231.304 114.431 240.38C114.095 240.679 113.644 240.794 113.212 240.693C107.937 239.452 96.4144 236.636 91.7851 234.66C82.8813 230.86 74.8998 225.167 67.85 218.564C67.0114 217.778 67.4169 216.353 68.5327 216.113C82.622 213.089 93.6577 202.619 98.6023 197.169C99.546 196.13 98.6045 194.474 97.2596 194.805C79.1197 199.277 66.4936 204.248 48.8259 198.546C48.5074 198.444 48.2368 198.226 48.0643 197.933C45.8539 194.187 32.6599 171.978 27.7077 163.545C27.0586 162.44 28.0644 161.092 29.2803 161.427C51.7518 167.611 74.9388 160.293 85.216 156.204C86.6083 155.65 86.3101 153.55 84.8241 153.442C63.8993 151.915 42.1333 147.983 24.2875 140.045C23.8805 139.864 23.5862 139.496 23.4899 139.052C21.8415 131.477 19.1511 115.796 18.0767 104.916C17.9868 104.005 18.7463 103.24 19.6334 103.34C32.0965 104.749 41.8416 105.41 48.7981 105.694C50.4285 105.761 50.8444 103.389 49.2901 102.895Z" fill="#4E901E"/>
<path d="M39.4759 15.4209C49.7495 28.8661 119.928 120.709 130.42 134.439C130.826 134.192 133.68 131.521 138.652 130.835C138.657 130.831 138.666 130.832 138.675 130.833C146.807 129.609 155.359 134.248 160.637 141.169C166.543 148.997 170.036 152.818 173.576 160.399C174.625 162.634 174.755 167.013 174.743 167.111C175.006 172.542 174.198 178.921 179.715 186.049C186.073 194.367 199.517 193.578 206.884 187.488C213.887 182.317 219.338 176.642 223.468 170.568C224.364 169.253 225.198 167.922 225.97 166.57C226.487 165.664 225.901 164.52 224.884 164.431C223.152 164.285 221.469 164.101 219.843 163.897C208.712 162.502 200.019 159.931 194.509 157.93C193.097 157.409 193.374 155.301 194.886 155.153C201.009 154.609 206.552 152.664 211.689 149.979C219.85 145.724 226.975 139.606 233.744 134.291L233.744 134.287C234.093 134.015 234.296 133.599 234.297 133.152C234.281 117.121 230.482 103.431 223.401 90.1402C222.857 89.1036 221.385 89.1777 220.908 90.2511C214.812 103.979 202.309 112.824 196.166 116.522C195.01 117.215 193.672 116.036 194.164 114.759C200.933 97.0521 200.567 75.1953 197.755 56.5276L197.751 56.5227C197.672 55.9823 198.193 56.4705 188.504 46.723C187.933 46.1544 187.043 46.1828 186.476 46.8128C185.395 48.0781 184.352 59.9788 168.827 94.4473C168.351 95.5024 167.86 96.584 167.357 97.6824C166.691 99.1352 164.563 98.5516 164.705 96.9549C164.886 94.8915 165.014 92.7804 165.101 90.6361C165.963 69.7919 162.732 45.6537 159.659 28.1915C159.582 27.7492 159.307 27.3774 158.912 27.1781C150.608 22.9968 136.503 16.9682 128.171 13.9865C127.328 13.685 126.435 14.2682 126.322 15.1782C124.547 29.7425 121.082 43.8745 116.531 56.3126C116.038 57.5288 114.651 57.4634 114.072 56.6468L114.072 56.6423C113.378 55.7382 114.268 51.7401 111.711 42.2921C111.711 42.2877 111.711 42.2877 111.711 42.2877C108.613 31.0046 103.555 22.3976 98.5401 11.4269C97.5919 9.3509 95.6599 7.92708 93.4358 7.71002C78.3327 6.20108 61.4611 7.28741 52.5078 9.25625C47.6452 10.1406 43.1685 12.2954 39.4759 15.4209Z" fill="#5EAC24"/>
<path d="M18.1807 81.138C18.0814 83.4764 19.217 85.7419 21.2324 86.9887C34.1721 94.9729 39.0234 99.6311 49.2911 102.895C50.861 103.391 50.3971 105.776 48.8023 105.697C41.8423 105.413 32.0995 104.751 19.634 103.343C18.7505 103.242 17.9905 104.008 18.077 104.918C19.1542 115.797 21.8447 131.477 23.4901 139.055C23.589 139.5 23.8837 139.865 24.2897 140.046C40.3859 147.208 59.6683 151.106 78.6434 152.923C80.7106 153.122 82.7719 153.292 84.8266 153.444C86.3134 153.553 86.6094 155.653 85.2193 156.207C84.053 156.67 82.7137 157.179 81.2316 157.704C69.6782 161.786 49.1999 166.912 29.2814 161.43C28.0751 161.092 27.0579 162.439 27.7123 163.549C49.5951 200.78 48.2365 198.337 48.8292 198.55C66.4966 204.25 79.124 199.279 97.2599 194.808C98.6064 194.478 99.5483 196.133 98.6025 197.172C82.9644 214.401 68.7768 215.654 67.9163 216.422C67.4686 216.8 67.2965 217.433 67.4859 218.001C67.4854 218.005 67.4897 218.005 67.4897 218.005C67.8645 219.06 79.0288 229.219 91.7869 234.66C96.4181 236.635 107.94 239.455 113.215 240.693C113.661 240.804 114.131 240.667 114.436 240.38C133.724 223.115 137.048 203.105 138.92 202.032C139.646 201.602 140.699 201.89 140.964 202.872C145.023 218.068 137.556 235.794 137.687 237.068C137.748 237.844 138.526 238.595 139.524 238.285C148.202 235.297 155.934 230.24 162.836 223.884C170.202 217.798 174.155 203.219 167.796 194.901C165.741 192.209 163.084 189.905 159.891 188.304C156.235 186.469 148.212 186.735 144.983 184.02C138.716 178.79 135.348 173.561 134.128 172.111C133.995 171.728 128.937 165.932 126.925 161.832C126.925 161.832 126.926 161.828 126.917 161.822C121.922 151.911 123.132 140.46 130.418 134.439C130.331 134.325 40.5401 16.8169 39.4741 15.421C35.7969 18.5298 32.8951 22.6082 31.1547 27.337C22.6374 50.5222 18.2276 78.3832 18.1807 81.138Z" fill="#4E901E"/>
<path d="M188.503 46.7235C198.193 56.4714 197.672 55.9827 197.751 56.5231L197.755 56.5281C200.567 75.1961 200.933 97.053 194.164 114.76C193.672 116.037 195.01 117.215 196.166 116.523C202.309 112.824 214.812 103.979 220.908 90.2515C221.385 89.1776 222.856 89.1035 223.401 90.1406C230.482 103.432 234.281 117.121 234.297 133.152C234.295 133.6 234.093 134.015 233.744 134.287L233.744 134.292C226.975 139.607 219.85 145.724 211.689 149.98C198.273 128.248 183.687 109.906 168.826 94.4477C184.351 59.9792 185.395 48.0785 186.476 46.8132C187.043 46.1837 187.932 46.1543 188.503 46.7235Z" fill="#6DC82A"/>
<path d="M128.171 13.9874C136.504 16.9686 150.608 22.9977 158.912 27.179C159.307 27.3779 159.583 27.7501 159.659 28.1924C162.732 45.6546 165.963 69.7928 165.101 90.637C149.29 74.7431 133.255 62.0456 118.059 51.9336C121.916 40.4206 124.765 27.9535 126.322 15.1796C126.435 14.2687 127.329 13.6855 128.171 13.9874Z" fill="#6DC82A"/>
<path d="M52.507 9.2562C61.4603 7.28736 78.3323 6.20107 93.4349 7.70997C95.6591 7.92703 97.591 9.35085 98.5393 11.4269C103.555 22.3976 108.613 31.005 111.711 42.2877C111.711 42.2877 111.711 42.2877 111.71 42.2921C112.387 44.7941 112.826 46.919 113.112 48.7093C70.3733 21.4931 40.7386 17.0741 39.475 15.4208C43.1677 12.2953 47.6443 10.1406 52.507 9.2562Z" fill="#6DC82A"/>
<path d="M29.2809 161.429C49.1998 166.911 69.6781 161.785 81.2311 157.703C93.4046 179.731 109.268 201.594 129.919 221.371C126.425 227.363 121.498 234.058 114.436 240.379C114.131 240.666 113.661 240.803 113.215 240.692C107.94 239.454 96.4176 236.635 91.7868 234.659C79.0287 229.218 67.8644 219.059 67.4897 218.004C67.4897 218.004 67.4853 218.004 67.4858 217.999C67.2964 217.433 67.4686 216.799 67.9163 216.421C68.7767 215.653 82.9644 214.399 98.6025 197.171C99.5483 196.132 98.6064 194.477 97.2598 194.807C79.1239 199.279 66.4965 204.249 48.8291 198.549C48.2363 198.337 49.5369 200.68 27.7122 163.548C27.057 162.438 28.0746 161.09 29.2809 161.429Z" fill="#5EAC24"/>
<path d="M31.1558 27.3366C32.8962 22.6074 35.7985 18.529 39.4751 15.4206C39.2754 17.1548 39.1522 22.0361 39.6871 25.3028C44.1162 52.3445 51.1486 100.913 78.6432 152.922C59.6681 151.106 40.3861 147.207 24.2895 140.046C23.883 139.864 23.5888 139.499 23.4899 139.054C21.8444 131.476 19.1535 115.797 18.0768 104.918C17.9898 104.008 18.7503 103.242 19.6338 103.343C32.0993 104.75 41.8421 105.413 48.8021 105.696C50.3969 105.776 50.8608 103.391 49.2909 102.894C39.0232 99.6306 34.1719 94.9728 21.2322 86.9882C19.2168 85.7414 18.0812 83.4758 18.1805 81.1375C18.2273 78.3831 22.6371 50.5221 31.1558 27.3366Z" fill="#5EAC24"/>
<path d="M139.37 18.3545C139.835 25.4152 140.701 42.9836 139.448 62.2357C139.331 64.092 140.652 65.6929 142.432 65.8966C144.35 66.116 146.077 64.6467 146.206 62.6591C147.312 45.6845 146.802 29.9697 146.331 21.3329C144.073 20.3422 141.717 19.3313 139.37 18.3545Z" fill="#47821C"/>
<path d="M64.6111 84.3186C63.5613 85.9096 63.9686 88.0684 65.5141 89.1356C80.3769 99.3727 94.1409 106.113 106.422 109.169C108.676 109.724 112.231 106.847 112.211 104.437C112.005 73.1179 93.931 33.5075 78.3214 6.97784C75.7319 6.9754 73.1114 7.04377 70.4648 7.18395C74.9117 14.4624 103.736 63.0313 105.361 101.686C94.53 98.54 82.4209 92.3895 69.3144 83.3605C67.7637 82.2971 65.6614 82.7231 64.6111 84.3186Z" fill="#47821C"/>
<path d="M27.9784 36.647C36.5026 44.2288 64.9459 68.9249 83.0855 77.6067C85.087 78.5766 87.4127 77.2762 87.8978 75.1781C91.9012 57.7247 68.0355 22.6904 57.5536 8.44352C54.9547 8.81493 51.9785 9.27883 50.0769 9.81655C50.1064 9.87355 79.827 48.9166 81.5385 68.9724C62.1272 57.9445 33.693 32.5312 30.3653 29.5304C29.5926 31.7124 28.7891 34.0868 27.9784 36.647Z" fill="#47821C"/>
<path d="M230.832 108.148C218.112 117.467 183.683 141.427 162.782 143.978C166.763 149.193 166.865 149.299 167.515 150.189C189.035 145.564 218.956 125.262 232.59 115.385C232.12 112.939 231.528 110.526 230.832 108.148Z" fill="#47821C"/>
<path d="M157.243 137.428C159.696 139.704 160.985 141.679 161.763 142.64C174.383 128.003 189.228 93.8814 199.161 68.7317C198.816 64.4029 198.314 60.2892 197.75 56.5226C197.67 55.9663 197.34 55.733 197.021 55.3901C187.743 79.7762 170.844 121.132 157.243 137.428Z" fill="#47821C"/>
<path d="M23.3525 53.2471C29.0845 59.1016 40.3355 70.0534 54.3597 80.9503C54.8602 81.3388 55.4345 81.5627 56.0176 81.6294C59.4439 82.0214 61.191 77.5187 58.4696 75.4061C42.0547 62.6508 29.2212 49.4851 25.3786 45.4227C24.2067 49.654 23.5339 52.5252 23.3525 53.2471Z" fill="#47821C"/>
<path d="M116.449 194.639C115.293 196.157 115.553 198.336 117.027 199.512C118.498 200.68 120.624 200.405 121.783 198.886C128.608 189.909 133.466 181.876 136.283 174.926C130.005 166.71 131.654 168.868 131.371 168.498C129.287 175.556 124.269 184.344 116.449 194.639Z" fill="#47821C"/>
<path d="M37.9139 180.814C39.2784 183.105 40.6225 185.376 41.8674 187.481C62.1866 185.81 110.11 180.668 131.122 168.176C130.335 167.089 128.804 165.369 127.258 162.47C106.137 174.647 55.0025 179.5 37.9139 180.814Z" fill="#47821C"/>
<path d="M83.6276 230.523C85.7 231.748 87.8348 232.869 90.0275 233.875C95.249 228.864 104.206 219.953 112.95 209.773C114.187 208.334 114.056 206.137 112.656 204.872C111.255 203.611 109.117 203.758 107.875 205.202C98.183 216.485 88.228 226.177 83.6276 230.523Z" fill="#47821C"/>
<path d="M19.6968 117.612C20.0804 120.178 20.4894 122.757 20.9013 125.233C31.7991 128.471 52.1313 133.991 70.4181 136.185C70.7271 136.225 71.0318 136.26 71.337 136.295C90.6891 138.509 111.491 137.937 125.921 129.448C126.262 129.249 126.61 128.949 126.823 128.707C135.326 119.078 141.256 103.713 144.447 83.0467C144.737 81.1498 143.476 79.3782 141.629 79.0875C139.78 78.8062 138.05 80.1049 137.756 81.9969C134.821 101.019 129.57 115.03 122.153 123.664C108.669 131.353 87.1486 131.096 66.942 128.285C46.816 125.484 27.989 120.151 19.6968 117.612Z" fill="#47821C"/>
</g>
<defs>
<clipPath id="clip0">
<rect width="223.397" height="229.236" fill="white" transform="matrix(-0.993519 -0.11367 -0.11367 0.993519 248.007 25.3936)"/>
</clipPath>
</defs>
</svg>
